<svg xmlns="http://www.w3.org/2000/svg" viewBox="0 0 1200 900" fill="none" role="img" aria-label="Gözde Ak1n marka banner">
  <rect width="1200" height="900" fill="#FAF8F4"/>
  <g transform="translate(500 40)">
    <path d="M95 8c-28 0-50 22-50 50 0 16 7 30 18 39" stroke="#3D5245" stroke-width="7" stroke-linecap="round"/>
    <path d="M45 58c0-22 18-40 40-40" stroke="#3D5245" stroke-width="7" stroke-linecap="round"/>
    <path d="M24 98c12 16 30 26 50 26" stroke="#3D5245" stroke-width="7" stroke-linecap="round"/>
    <path d="M58 42c12-6 24-6 36 0" stroke="#C5A46D" stroke-width="3" stroke-linecap="round"/>
    <circle cx="68" cy="62" r="3.5" fill="#C5A46D"/>
    <path d="M30 112c12-18 28-28 48-28" stroke="#3D5245" stroke-width="3" stroke-linecap="round"/>
    <path d="M118 18 L158 118" stroke="#C5A46D" stroke-width="9" stroke-linecap="round"/>
    <path d="M136 18 L96 118" stroke="#C5A46D" stroke-width="5" stroke-linecap="round"/>
  </g>
  <text x="600" y="210" text-anchor="middle" font-family="Georgia, serif" font-size="54" letter-spacing="10" fill="#3D5245">GÖZDE</text>
  <text x="600" y="272" text-anchor="middle" font-family="Georgia, serif" font-size="54" letter-spacing="10" fill="#C5A46D">AKIN</text>
  <text x="600" y="318" text-anchor="middle" font-family="Arial, sans-serif" font-size="16" letter-spacing="4" fill="#3D5245">UZMAN D0YET0SYEN &amp; PS0KOLOG</text>

  <g font-family="Arial, sans-serif" font-size="13" letter-spacing="1.5" fill="#3D5245">
    <g transform="translate(95 430)">
      <ellipse cx="50" cy="36" rx="34" ry="14" stroke="#3D5245" stroke-width="2"/>
      <path d="M30 30c8-8 18-8 26 0" stroke="#3D5245" stroke-width="2"/>
      <path d="M38 24c4-6 10-6 14 0" stroke="#3D5245" stroke-width="2"/>
      <text x="50" y="88" text-anchor="middle">B0L0MSEL</text>
      <text x="50" y="106" text-anchor="middle">BESLENME</text>
    </g>
    <g transform="translate(295 430)">
      <ellipse cx="50" cy="40" rx="28" ry="22" stroke="#3D5245" stroke-width="2"/>
      <path d="M50 18a18 18 0 0 1 0 36" stroke="#3D5245" stroke-width="2"/>
      <text x="50" y="88" text-anchor="middle">METABOL0K</text>
      <text x="50" y="106" text-anchor="middle">0Y0LE^ME</text>
    </g>
    <g transform="translate(495 430)">
      <path d="M20 56h60" stroke="#3D5245" stroke-width="2"/>
      <path d="M35 56V42M65 56V42" stroke="#3D5245" stroke-width="2"/>
      <path d="M50 34c-8 0-14 6-14 14" stroke="#3D5245" stroke-width="2"/>
      <text x="50" y="88" text-anchor="middle">HORMONAL</text>
      <text x="50" y="106" text-anchor="middle">DENGE</text>
    </g>
    <g transform="translate(695 430)">
      <path d="M24 48c8-16 24-24 40-16 8 4 12 12 12 20" stroke="#3D5245" stroke-width="2"/>
      <circle cx="34" cy="34" r="3" fill="#3D5245"/>
      <circle cx="50" cy="28" r="3" fill="#3D5245"/>
      <circle cx="66" cy="34" r="3" fill="#3D5245"/>
      <text x="50" y="88" text-anchor="middle">Z0H0N &amp; DUYGU</text>
      <text x="50" y="106" text-anchor="middle">DENGES0</text>
    </g>
    <g transform="translate(895 430)">
      <circle cx="50" cy="40" r="18" stroke="#3D5245" stroke-width="2"/>
      <path d="M38 52v12M62 52v12M44 64h12" stroke="#3D5245" stroke-width="2"/>
      <path d="M50 22v-8M50 14c10 0 18 4 22 10" stroke="#3D5245" stroke-width="2" stroke-dasharray="3 3"/>
      <text x="50" y="88" text-anchor="middle">SÜRDÜRÜLEB0L0R</text>
      <text x="50" y="106" text-anchor="middle">YA^AM</text>
    </g>
  </g>

  <text x="600" y="620" text-anchor="middle" font-family="Georgia, serif" font-size="28" font-style="italic" fill="#3D5245">Sal1kl1 bir beden, dengeli bir zihin, mutlu bir sen.</text>
</svg>
