<svg xmlns="http://www.w3.org/2000/svg" viewBox="0 0 120 120" fill="none" role="img" aria-label="G—zde Ak1n">
  <rect width="120" height="120" rx="24" fill="#FAF8F4"/>
  <path d="M78 24c-18 0-32 14-32 32 0 10 4 18 11 24" stroke="#3D5245" stroke-width="5" stroke-linecap="round"/>
  <path d="M46 56c0-14 11-25 25-25" stroke="#3D5245" stroke-width="5" stroke-linecap="round"/>
  <path d="M34 78c8 10 20 16 33 16" stroke="#3D5245" stroke-width="5" stroke-linecap="round"/>
  <path d="M30 88c6-10 16-16 28-16" stroke="#3D5245" stroke-width="4" stroke-linecap="round"/>
  <path d="M52 34c8-4 16-4 24 0" stroke="#C5A46D" stroke-width="2.5" stroke-linecap="round"/>
  <circle cx="58" cy="48" r="2.5" fill="#C5A46D"/>
  <path d="M54 52c4 6 10 9 16 9" stroke="#C5A46D" stroke-width="2" stroke-linecap="round"/>
  <path d="M24 82c8-12 18-18 30-18" stroke="#3D5245" stroke-width="2.5" stroke-linecap="round"/>
  <path d="M22 86l6-10M26 84l-4 8" stroke="#3D5245" stroke-width="2" stroke-linecap="round"/>
  <path d="M72 30 L92 88" stroke="#C5A46D" stroke-width="6" stroke-linecap="round"/>
  <path d="M82 30 L62 88" stroke="#C5A46D" stroke-width="4" stroke-linecap="round"/>
</svg>
